<svg xmlns="http://www.w3.org/2000/svg" width="50" height="49.929" viewBox="0 0 50 49.929"><path d="M36.337,30.079A28.245,28.245,0,0,0,32.1,28.055c-.578-.193-.964-.386-1.349.289l-1.928,2.41a1.128,1.128,0,0,1-1.446.193,16.208,16.208,0,0,1-4.916-3.084,16.289,16.289,0,0,1-3.47-4.337c-.386-.578,0-.964.289-1.253l.964-1.06.578-1.06c.193-.386,0-.771,0-1.06l-1.928-4.627c-.578-1.253-1.06-.964-1.446-1.06H16.289a2.151,2.151,0,0,0-1.735.771,7.177,7.177,0,0,0-2.12,5.108c0,3.084,2.217,6.072,2.506,6.458s4.434,6.747,10.6,9.349l3.566,1.349a7.692,7.692,0,0,0,3.855.193c1.253-.1,3.759-1.446,4.241-2.892a6.255,6.255,0,0,0,.386-2.892c-.193-.386-.578-.482-1.253-.771M25.06,45.5a20.637,20.637,0,0,1-10.6-2.892l-.675-.386L5.976,44.152,8.1,36.634l-.578-.771A20.682,20.682,0,1,1,25.06,45.5M42.6,7.332A24.867,24.867,0,0,0,3.47,37.212L0,50.128l13.2-3.47A24.867,24.867,0,0,0,42.7,7.236" transform="translate(0 -0.198)"/></svg>